<?xml version="1.0" encoding="utf-8"?>
<!-- Generator: Adobe Illustrator 16.0.4, SVG Export Plug-In . SVG Version: 6.00 Build 0)  -->
<!DOCTYPE svg PUBLIC "-//W3C//DTD SVG 1.1//EN" "http://www.w3.org/Graphics/SVG/1.1/DTD/svg11.dtd">
<svg version="1.1" id="final-logo" xmlns="http://www.w3.org/2000/svg" xmlns:xlink="http://www.w3.org/1999/xlink" x="0px" y="0px"
	 width="274.486px" height="155.992px" viewBox="0 0 274.486 155.992" enable-background="new 0 0 274.486 155.992"
	 xml:space="preserve">
<g>
	<g>
		<path fill="#4D4D4D" d="M93.028,27.187c0,5.342,0,10.683,0,16.024c0,3.19,4.658,1.904,4.658-0.965c0-5.342,0-10.683,0-16.024
			C97.687,23.031,93.028,24.317,93.028,27.187L93.028,27.187z"/>
	</g>
</g>
<g>
	<g>
		<path fill="#4D4D4D" d="M104.898,28.373c0,4.551,0,9.101,0,13.651c0,3.19,4.658,1.904,4.658-0.965c0-4.551,0-9.101,0-13.651
			C109.557,24.218,104.898,25.504,104.898,28.373L104.898,28.373z"/>
	</g>
</g>
<g>
	<g>
		<path fill="#4D4D4D" d="M113.801,25.406c0,5.144,0,10.287,0,15.431c0,3.19,4.658,1.904,4.658-0.965c0-0.099,0-0.198,0-0.297
			c0-3.19-4.658-1.904-4.658,0.965c0,0.099,0,0.198,0,0.297c0,3.19,4.658,1.904,4.658-0.965c0-5.144,0-10.287,0-15.431
			C118.459,21.251,113.801,22.537,113.801,25.406L113.801,25.406z"/>
	</g>
</g>
<g>
	<g>
		<path fill="#4D4D4D" d="M84.081,29.875c7.081-0.321,13.135-4.724,20.179-5.045c1.927-0.088,1.935-3.088,0-3
			c-7.079,0.322-13.132,4.726-20.179,5.045C82.154,26.962,82.146,29.962,84.081,29.875L84.081,29.875z"/>
	</g>
</g>
<g>
	<g>
		<path fill="#4D4D4D" d="M106.634,34.403c0.114,0.017,0.229,0.034,0.343,0.051c0,0.964,0,1.929,0,2.893
			c-0.748,0.154,0.044,0.016,0.242,0.002c0.531-0.038,1.062-0.079,1.593-0.122c1.45-0.118,2.896-0.276,4.335-0.485
			c1.74-0.253,5.452-1.214,3.45-3.68c-1.22-1.502-3.329,0.634-2.121,2.121c-1.239-1.525,0.774-2.03-0.115-1.744
			c-0.38,0.122-0.776,0.194-1.168,0.27c-0.961,0.186-1.938,0.286-2.911,0.385c-1.344,0.136-2.776,0.087-4.102,0.36
			c-1.399,0.289-1.476,2.669,0,2.893c0.151,0.023,0.301,0.054,0.454,0.056C108.569,37.433,108.566,34.433,106.634,34.403
			L106.634,34.403z"/>
	</g>
</g>
<g>
	<g>
		<path fill="#4D4D4D" d="M125.549,34.732c2.8-0.063,5.662-0.74,8.411-1.24c1.901-0.346,1.094-3.237-0.797-2.893
			c-2.491,0.453-5.078,1.076-7.614,1.133C123.617,31.776,123.613,34.776,125.549,34.732L125.549,34.732z"/>
	</g>
</g>
<g>
	<g>
		<path fill="#4D4D4D" d="M209.415,102.26c3.857-0.087,7.799-1.021,11.585-1.71c1.901-0.346,1.094-3.236-0.797-2.893
			c-3.528,0.642-7.195,1.521-10.788,1.603C207.483,99.303,207.479,102.303,209.415,102.26L209.415,102.26z"/>
	</g>
</g>
<g>
	<g>
		<path fill="#4D4D4D" d="M224.041,105.417c-4.839,0.461-9.679,0.922-14.518,1.383c0.854,0.628,1.71,1.256,2.564,1.884
			c0-7.555,0-15.11,0-22.665c-0.698,0.95-1.396,1.899-2.094,2.849c4.393-0.519,8.785-1.037,13.178-1.556
			c2.901-0.343,2.697-5.107-0.471-4.733c-4.393,0.519-8.785,1.037-13.178,1.556c-1.383,0.164-2.094,1.624-2.094,2.849
			c0,7.555,0,15.11,0,22.665c0,1.393,1.399,1.995,2.564,1.884c4.839-0.461,9.679-0.922,14.518-1.383
			C227.419,109.874,227.21,105.116,224.041,105.417L224.041,105.417z"/>
	</g>
</g>
<g>
	<g>
		<path fill="#4D4D4D" d="M58.973,60.95c-2.18-5.005-7.896-9.787-13.617-7.681c-4.776,1.759-6.833,7.418-4.313,11.812
			c2.309,4.025,6.943,7.103,10.116,10.405c5.444,5.666,9.411,12.293,10.289,20.21c1.083,9.769-5.384,15.891-14.456,17.611
			c-9.391,1.78-18.629-3.052-23.718-10.852c-4.466-6.847-3.899-17.572,2.788-22.722c6.666-5.133,14.347,0.793,17.545,6.794
			c1.459,2.738,5.737,0.4,4.387-2.135c-3.264-6.125-8.234-11.068-15.521-11.328c-6.566-0.234-11.872,4.422-14.69,9.947
			c-8.551,16.761,7.641,34.959,24.385,35.463c7.551,0.227,15.077-2.812,20.006-8.532c5.688-6.601,4.619-16.741,1.754-24.286
			c-2.701-7.108-8.114-12.729-13.521-17.872c-1.945-1.851-4.047-3.63-5.546-5.881c-1.442-2.167,1.208-4.227,3.244-4.302
			c2.703-0.1,5.508,3.246,6.481,5.482C55.832,65.947,60.122,63.589,58.973,60.95L58.973,60.95z"/>
	</g>
</g>
<g>
	<g>
		<path fill="#4D4D4D" d="M67.762,77.825c2.356-2.679,3.076-6.578,3.862-9.949c0.493-2.115,0.909-4.251,1.518-6.338
			c0.204-0.7,0.467-1.375,0.748-2.046c0.513-1.224-0.173-0.547-0.023-0.39c2.447,2.584,3.571,6.866,4.688,10.146
			c0.914,2.688,2.102,5.708,2.261,8.574c0.179,3.197,4.819,1.926,4.658-0.965c-0.213-3.821-1.865-7.875-3.119-11.439
			c-1.166-3.312-2.96-9.58-6.643-11.062c-8.121-3.27-8.509,17.319-11.576,20.806C62.024,77.56,65.683,80.188,67.762,77.825
			L67.762,77.825z"/>
	</g>
</g>
<g>
	<g>
		<path fill="#4D4D4D" d="M132.386,71.061c0.425-2.829,1.213-5.643,1.916-8.41c0.559-2.2,1.361-8.21,3.362-9.574
			c-1.183-0.251-2.365-0.502-3.548-0.753c2.371,6.583,5.257,13.436,8.605,19.586c1.482,2.721,5.759,0.386,4.387-2.135
			c-3.349-6.149-6.234-13.003-8.605-19.586c-0.576-1.601-2.363-1.561-3.548-0.753c-2.912,1.984-3.79,7.436-4.639,10.542
			c-0.968,3.542-2.009,7.176-2.556,10.815C127.278,74.005,131.942,74.016,132.386,71.061L132.386,71.061z"/>
	</g>
</g>
<g>
	<g>
		<path fill="#4D4D4D" d="M133.342,65.814c1.444-0.07,2.896-0.289,4.323-0.5c1.401-0.207,3.569-0.374,4.391-1.727
			c1.007-1.658-1.588-3.165-2.59-1.514c0.27-0.444,0.399-0.323,0.038-0.2c-0.303,0.103-0.619,0.171-0.931,0.242
			c-0.759,0.172-1.532,0.284-2.302,0.392c-0.967,0.136-1.954,0.259-2.93,0.307C131.416,62.908,131.407,65.908,133.342,65.814
			L133.342,65.814z"/>
	</g>
</g>
<g>
	<g>
		<path fill="#4D4D4D" d="M161.001,45.142c-10.333,0.895-16.977,9.441-12.66,19.59c1.906,4.483,7.896,7.497,12.659,6.437
			c5.258-1.169,8.723-5.424,9.077-10.766c0.214-3.221-4.426-3.265-4.625-0.268c-0.573,8.63-11.915,7.743-13.482,0.13
			c-1.411-6.854,3.307-9.854,9.502-10.391C164.381,49.624,164.169,44.868,161.001,45.142L161.001,45.142z"/>
	</g>
</g>
<g>
	<g>
		<path fill="#4D4D4D" d="M157.317,62.933c6.393-0.98,12.945-1.447,19.395-1.813c8.398-0.477,16.89-0.354,24.154-5.219
			c5.304-3.552,6.164-11.291,3.092-16.579c-3.882-6.68-12.172-7.771-19.214-7.876c-2.862-0.042-3.846,4.778-0.727,4.824
			c5.783,0.086,13.453,0.559,16.24,6.577c3.626,7.832-4.39,11.252-10.555,12.51c-6.396,1.306-13.214,0.931-19.719,1.47
			c-4.372,0.362-8.799,0.708-13.138,1.373C153.961,58.642,154.155,63.418,157.317,62.933L157.317,62.933z"/>
	</g>
</g>
<g>
	<g>
		<path fill="#4D4D4D" d="M174.859,53.448c4.589-0.584,9.734-0.661,14.013-2.584c2.733-1.229,1.321-5.664-1.637-4.334
			c-3.822,1.718-8.739,1.662-12.847,2.185C171.491,49.083,171.692,53.851,174.859,53.448L174.859,53.448z"/>
	</g>
</g>
<g>
	<g>
		<path fill="#4D4D4D" d="M192.08,62.836c-4.835,1.282-9.952,1.676-14.939,1.846c-2.842,0.097-3.832,4.93-0.727,4.824
			c5.375-0.184,10.926-0.555,16.137-1.937C195.345,66.829,195.174,62.016,192.08,62.836L192.08,62.836z"/>
	</g>
</g>
<g>
	<g>
		<path fill="#4D4D4D" d="M42.213,132.573c11.394-0.409,22.204-4.117,29.381-13.356c4.333-5.579,5.457-12.457,6.175-19.294
			c0.318-3.022,0.383-6.07,0.425-9.106c0.015-1.06,0.011-2.121,0.014-3.182c0.006-1.878,0.809-2.386-0.92-1.373
			c-1.004-0.367-2.008-0.733-3.012-1.1c3.59,7.986,7.746,15.954,10.653,24.216c0.6,1.703,3.115,1.749,4.007,0.265
			c3.7-6.16,2.183-17.154,9.285-21.312c-1.049-0.562-2.098-1.123-3.147-1.685c0.338,12.447,1.52,24.895,2.664,37.289
			c0.295,3.191,4.926,1.93,4.658-0.965c-1.146-12.395-2.327-24.842-2.664-37.289c-0.041-1.497-1.885-2.424-3.147-1.685
			c-4.15,2.429-6.245,6.988-7.957,11.296c-0.958,2.411-1.706,4.912-2.396,7.41c-0.284,1.028-0.558,2.059-0.819,3.092
			c-0.155,0.615-1.075,2.801-0.104,1.183c1.336,0.088,2.671,0.177,4.007,0.265c-2.907-8.262-7.063-16.229-10.653-24.216
			c-0.502-1.116-1.868-1.77-3.012-1.1c-2.144,1.256-2.045,3.578-2.093,5.796c-0.141,6.35-0.28,12.541-1.379,18.822
			c-2.497,14.275-15.961,20.727-29.239,21.203C40.099,127.851,39.108,132.685,42.213,132.573L42.213,132.573z"/>
	</g>
</g>
<g>
	<g>
		<path fill="#4D4D4D" d="M144.349,98.039c-0.878-4.174-4.586-6.856-8.818-5.303c-3.952,1.451-4.528,7.919-4.893,11.288
			c-0.527,4.876-1.967,16.198,5.481,16.856c7.341,0.649,10.485-5.737,10.67-12.139c0.093-3.21-4.539-3.27-4.625-0.268
			c-0.08,2.786-1.021,9.858-5.73,7.363c-3.062-1.623-1.334-10.036-1.04-12.753c0.196-1.812,0.442-3.965,1.392-5.569
			c0.912-1.54,2.789,0.936,2.905,1.489C140.346,102.119,144.949,100.897,144.349,98.039L144.349,98.039z"/>
	</g>
</g>
<g>
	<g>
		<path fill="#4D4D4D" d="M135.649,86.938c17.09-1.517,34.136-4.557,51.107-7.045c-0.854-0.628-1.709-1.256-2.564-1.884
			c1.865,9.847,6.158,19.57,11.972,27.692c10.474,14.635,30.365,22.699,47.001,13.259c18.225-10.342,18.069-37.172,3.971-51.069
			c-11.853-11.685-32.848-10.749-44.05,1.575c-1.037,1.14-1.753,2.523-2.49,3.86c-1.567,2.839,2.818,4.154,4.283,1.498
			c4.229-7.665,14.756-10.613,23.015-10.422c6.3,0.146,12.289,3.31,16.551,7.832c6.322,6.709,8.504,16.744,8.16,25.71
			c-0.396,10.34-10.394,18.06-19.75,19.957c-23.554,4.776-40.234-20.96-44.004-40.857c-0.249-1.313-1.212-2.083-2.564-1.884
			c-16.972,2.488-34.018,5.528-51.107,7.045C132.271,82.463,132.481,87.219,135.649,86.938L135.649,86.938z"/>
	</g>
</g>
<g>
	<g>
		<path fill="#4D4D4D" d="M87.093,58.746c0.039,5.187-0.232,17.903,7.591,18.242c9.641,0.418,8.935-14.739,8.938-20.855
			c0.001-3.19-4.656-1.904-4.658,0.965c-0.001,2.224,0.598,16.106-3.916,15.053c-3.947-0.921-3.276-11.742-3.296-14.369
			C91.727,54.589,87.071,55.873,87.093,58.746L87.093,58.746z"/>
	</g>
</g>
<g>
	<g>
		<path fill="#4D4D4D" d="M68.483,70.526c3.694-0.223,7.261-1.496,10.994-1.691c1.925-0.101,1.935-3.101,0-3
			c-3.729,0.195-7.312,1.469-10.994,1.691C66.562,67.643,66.55,70.643,68.483,70.526L68.483,70.526z"/>
	</g>
</g>
<g>
	<g>
		<path fill="#4D4D4D" d="M110.164,115.639c3.889-0.235,7.643-1.575,11.573-1.78c1.925-0.1,1.935-3.101,0-3
			c-3.926,0.205-7.696,1.546-11.573,1.78C108.242,112.755,108.23,115.755,110.164,115.639L110.164,115.639z"/>
	</g>
</g>
<g>
	<g>
		<path fill="#4D4D4D" d="M109.309,120.33c2.466-2.803,3.217-6.883,4.04-10.41c0.521-2.237,0.963-4.496,1.606-6.704
			c0.215-0.737,0.492-1.447,0.788-2.154c0.526-1.257-0.026-0.682,0.188-0.455c2.583,2.727,3.771,7.246,4.949,10.707
			c0.966,2.839,2.22,6.029,2.388,9.056c0.179,3.197,4.819,1.926,4.658-0.965c-0.224-4.012-1.96-8.268-3.277-12.01
			c-1.212-3.444-3.09-10.035-6.926-11.58c-8.362-3.368-8.869,18.244-12.041,21.85C103.571,120.065,107.229,122.693,109.309,120.33
			L109.309,120.33z"/>
	</g>
</g>
<g>
	<g>
		<path fill="#4D4D4D" d="M150.322,95.309c0,7.186,0,14.372,0,21.558c0,3.19,4.658,1.904,4.658-0.965c0-7.186,0-14.372,0-21.558
			C154.98,91.153,150.322,92.439,150.322,95.309L150.322,95.309z"/>
	</g>
</g>
<g>
	<g>
		<path fill="#4D4D4D" d="M165.032,90.406c0,8.499,0,16.998,0,25.497c0,3.19,4.658,1.904,4.658-0.965c0-0.164,0-0.327,0-0.49
			c0-3.19-4.658-1.904-4.658,0.965c0,0.164,0,0.327,0,0.49c0,3.19,4.658,1.904,4.658-0.965c0-8.499,0-16.998,0-25.497
			C169.69,86.251,165.032,87.537,165.032,90.406L165.032,90.406z"/>
	</g>
</g>
<g>
	<g>
		<path fill="#4D4D4D" d="M183.032,80.501c0.049,11.141,0.952,22.262,1,33.402c0.014,3.197,4.658,1.899,4.658-0.965
			c0-2.406,0-4.812,0-7.217c0-3.19-4.658-1.904-4.658,0.965c0,2.406,0,4.812,0,7.217c1.553-0.322,3.105-0.643,4.658-0.965
			c-0.049-11.141-0.952-22.262-1-33.402C187.677,76.344,183.021,77.629,183.032,80.501L183.032,80.501z"/>
	</g>
</g>
<g>
	<g>
		<path fill="#4D4D4D" d="M199.032,86.406c0,6.945,0,13.89,0,20.835c0,3.19,4.658,1.904,4.658-0.965c0-6.945,0-13.89,0-20.835
			C203.69,82.251,199.032,83.537,199.032,86.406L199.032,86.406z"/>
	</g>
</g>
<g>
	<g>
		<path fill="#4D4D4D" d="M174.032,89.406c0.074,8.349,1,16.655,1,25.007c0,3.19,4.658,1.904,4.658-0.965
			c0-8.352-0.926-16.658-1-25.007C178.662,85.249,174.007,86.532,174.032,89.406L174.032,89.406z"/>
	</g>
</g>
<g>
	<g>
		<path fill="#4D4D4D" d="M152.621,106.566c0.104,0.017,0.208,0.033,0.312,0.049c0,0.964,0,1.929,0,2.893
			c-0.726,0.16,0.397-0.017,0.592-0.031c0.822-0.063,1.644-0.13,2.465-0.202c2.016-0.175,4.024-0.402,6.026-0.695
			c1.509-0.221,7.954-1.208,5.669-4.213c-1.154-1.519-3.762-0.027-2.59,1.514c-0.786-1.033,0.979-1.383-0.305-0.943
			c-0.586,0.201-1.201,0.322-1.807,0.446c-1.557,0.321-3.143,0.5-4.721,0.671c-1.998,0.216-4.162,0.127-6.128,0.56
			c-1.393,0.307-1.479,2.653,0,2.893c0.162,0.026,0.322,0.056,0.485,0.058C154.557,109.598,154.554,106.598,152.621,106.566
			L152.621,106.566z"/>
	</g>
</g>
<g>
	<g>
		<path fill="#4D4D4D" d="M134.045,37.48c-3.228,0.26-6.455,0.52-9.683,0.78c0.5,0.5,1,1,1.5,1.5c0-5.341,0-10.683,0-16.024
			c-0.5,0.5-1,1-1.5,1.5c3.381-0.357,6.761-0.714,10.142-1.071c1.903-0.201,1.923-3.203,0-3c-3.381,0.357-6.761,0.714-10.142,1.071
			c-0.812,0.086-1.5,0.617-1.5,1.5c0,5.341,0,10.683,0,16.024c0,0.768,0.684,1.566,1.5,1.5c3.228-0.26,6.455-0.52,9.683-0.78
			C135.96,40.326,135.975,37.325,134.045,37.48L134.045,37.48z"/>
	</g>
</g>
<g>
	<g>
		<path fill="#4D4D4D" d="M121.203,54.53c-0.871-4.485-6.78-7.54-10.698-4.277c-3.775,3.144-2.725,7.937-0.459,11.497
			c3.436,5.397,8.163,9.851,10.592,15.878c1.987,4.935-1.53,8.542-6.636,6.762c-4.531-1.58-3.958-9.063-3.494-12.632
			c0.419-3.218-4.239-3.236-4.625-0.268c-0.775,5.963-0.518,12.844,4.753,16.717c4.995,3.67,11.936,0.993,14.546-4.019
			c2.629-5.046-1.085-11.287-3.787-15.396c-1.961-2.982-4.268-5.731-6.393-8.595c-0.765-1.03-1.507-2.092-2.08-3.243
			c-1.468-2.943,3.081-4.252,3.623-1.458C117.153,58.625,121.76,57.397,121.203,54.53L121.203,54.53z"/>
	</g>
</g>
</svg>
